<?xml version="1.0" encoding="UTF-8"?>
<svg version="1.1" xmlns="http://www.w3.org/2000/svg" width="444" height="200">
<path d="M0 0 C1.8671875 0.34375 1.8671875 0.34375 3.7421875 1.90625 C6.75978032 8.44436778 7.12332203 14.27159102 6.8671875 21.34375 C21.35110002 21.74525476 33.1169654 21.95538362 44.8671875 12.34375 C46.24745617 10.7157408 47.60280428 9.06331118 48.8671875 7.34375 C49.5271875 7.34375 50.1871875 7.34375 50.8671875 7.34375 C50.24171465 12.76451466 46.15875221 16.31636898 42.1171875 19.53125 C34.22105539 23.93486214 26.22701728 25.48647156 17.2421875 25.46875 C15.92992187 25.47132812 14.61765625 25.47390625 13.265625 25.4765625 C9.8671875 25.34375 9.8671875 25.34375 6.8671875 24.34375 C6.75761719 25.10816406 6.64804688 25.87257813 6.53515625 26.66015625 C5.69112976 32.36248159 4.72504515 37.9466362 3.38891602 43.55419922 C0.81715357 55.63410219 0.8511943 68.1191347 0.33203125 80.4140625 C0.20913507 83.1449653 0.08243726 85.87568773 -0.04429626 88.60641479 C-0.34099155 95.04039677 -0.62692594 101.47480284 -0.90808147 107.90948093 C-1.40985953 119.38984898 -1.92640976 130.86954637 -2.45244879 142.34882724 C-2.66485745 146.99593914 -2.86782679 151.6434042 -3.06837463 156.29104614 C-3.55975463 167.38881585 -4.12131069 178.46093623 -5.15795898 189.52294922 C-5.23951013 190.39720613 -5.32106127 191.27146305 -5.40508366 192.1722126 C-6.00118635 198.0804977 -6.00118635 198.0804977 -7.1328125 200.34375 C-7.7928125 200.34375 -8.4528125 200.34375 -9.1328125 200.34375 C-9.13777772 199.15160354 -9.13777772 199.15160354 -9.14284325 197.93537331 C-9.22416685 178.57093614 -9.31628984 159.20657767 -9.42033958 139.84224892 C-9.47039914 130.47769417 -9.5168427 121.11314789 -9.5546875 111.74853516 C-9.58769349 103.58356841 -9.62757194 95.41866864 -9.67560256 87.25377595 C-9.70078217 82.93305862 -9.72258838 78.61238523 -9.73615646 74.29161453 C-9.74905466 70.21881528 -9.77119147 66.14616739 -9.80019569 62.073452 C-9.80921117 60.58444106 -9.81494748 59.0954058 -9.81702614 57.60636902 C-9.8289279 50.37098491 -9.978868 43.41013298 -11.6874485 36.33960533 C-12.3317973 33.45201903 -12.32635652 30.66614271 -12.2578125 27.71875 C-12.23976563 26.69523437 -12.22171875 25.67171875 -12.203125 24.6171875 C-12.17992187 23.86695312 -12.15671875 23.11671875 -12.1328125 22.34375 C-18.86934629 27.26005875 -21.93817273 32.83845986 -25.6328125 40.21875 C-26.69529006 42.3256094 -27.76807889 44.42730335 -28.8515625 46.5234375 C-29.31498047 47.44882324 -29.77839844 48.37420898 -30.25585938 49.32763672 C-32.1328125 52.34375 -32.1328125 52.34375 -33.86500549 53.99798584 C-38.070968 58.03694753 -39.61274488 60.88157608 -40.01928711 66.75976562 C-40.05981574 69.25618706 -40.06315441 71.75340659 -40.03515625 74.25 C-40.04455551 75.58380559 -40.05702205 76.91759275 -40.07240295 78.25134277 C-40.10446172 81.73691488 -40.09524949 85.22116366 -40.07702637 88.70678711 C-40.0658208 92.27341877 -40.09421748 95.8397202 -40.11914062 99.40625 C-40.16214717 106.38559435 -40.16149592 113.36434164 -40.1328125 120.34375 C-42.38212532 120.43086201 -44.63240815 120.49318267 -46.8828125 120.54492188 C-48.13578125 120.5822644 -49.38875 120.61960693 -50.6796875 120.65808105 C-54.4055522 120.31892305 -55.60082057 119.78387348 -58.1328125 117.125 C-59.17835736 115.73094018 -60.17877164 114.30195879 -61.1328125 112.84375 C-61.63941406 112.14765625 -62.14601562 111.4515625 -62.66796875 110.734375 C-63.67918935 109.33780435 -64.67182518 107.92757039 -65.64453125 106.50390625 C-68.03296893 103.03722374 -70.58789284 99.69636579 -73.1328125 96.34375 C-73.8134375 97.024375 -74.4940625 97.705 -75.1953125 98.40625 C-75.65421875 98.86 -76.113125 99.31375 -76.5859375 99.78125 C-77.65894413 100.86509508 -78.70979614 101.97114969 -79.7421875 103.09375 C-83.72317301 107.33039513 -87.6409573 110.31113233 -93.1328125 112.34375 C-93.7928125 112.34375 -94.4528125 112.34375 -95.1328125 112.34375 C-95.1328125 111.35375 -95.1328125 110.36375 -95.1328125 109.34375 C-94.56433594 109.06402344 -93.99585938 108.78429687 -93.41015625 108.49609375 C-86.56855682 104.94394446 -81.42636726 100.78408215 -77.1328125 94.34375 C-77.36019469 90.26836156 -80.06327128 87.56105609 -82.5078125 84.46875 C-82.94826904 83.90720215 -83.38872559 83.3456543 -83.8425293 82.76708984 C-85.26637458 80.95428559 -86.6991783 79.14881927 -88.1328125 77.34375 C-89.59814132 75.48808916 -91.06166311 73.63102704 -92.52392578 71.77294922 C-93.44318982 70.606106 -94.36459786 69.44094731 -95.28857422 68.27783203 C-98.37564282 64.37526763 -101.23202626 60.40485073 -104.1328125 56.34375 C-104.4628125 77.46375 -104.7928125 98.58375 -105.1328125 120.34375 C-110.7428125 120.34375 -116.3528125 120.34375 -122.1328125 120.34375 C-122.1328125 91.96375 -122.1328125 63.58375 -122.1328125 34.34375 C-114.8728125 34.34375 -107.6128125 34.34375 -100.1328125 34.34375 C-95.51905659 39.61661389 -91.13587512 44.82562146 -86.9453125 50.40625 C-80.81503953 58.5009497 -74.51345554 66.44554861 -68.1328125 74.34375 C-66.1877125 71.4261 -65.68004933 69.71837715 -65.1328125 66.34375 C-65.62652344 65.93382813 -66.12023437 65.52390625 -66.62890625 65.1015625 C-67.26957031 64.56273438 -67.91023438 64.02390625 -68.5703125 63.46875 C-69.20839844 62.93507812 -69.84648437 62.40140625 -70.50390625 61.8515625 C-72.9843158 59.55554791 -73.12300064 58.47375708 -73.3828125 55.03125 C-73.11660467 51.10468446 -72.67236881 49.32116084 -70.1328125 46.34375 C-67.6953125 45.28125 -67.6953125 45.28125 -65.1328125 45.34375 C-62.84313879 47.18820938 -61.44600026 48.71737447 -60.1328125 51.34375 C-60.06215633 53.38430005 -60.04859274 55.42709257 -60.0703125 57.46875 C-60.07933594 58.56445312 -60.08835938 59.66015625 -60.09765625 60.7890625 C-60.10925781 61.63210937 -60.12085938 62.47515625 -60.1328125 63.34375 C-59.1428125 63.67375 -58.1528125 64.00375 -57.1328125 64.34375 C-56.8028125 54.44375 -56.4728125 44.54375 -56.1328125 34.34375 C-50.8528125 34.34375 -45.5728125 34.34375 -40.1328125 34.34375 C-39.6378125 44.73875 -39.6378125 44.73875 -39.1328125 55.34375 C-34.31739882 48.35363337 -30.26914532 41.20382084 -26.453125 33.62890625 C-23.31708409 27.69413115 -19.74318195 23.14513193 -14.1328125 19.34375 C-13.4728125 19.34375 -12.8128125 19.34375 -12.1328125 19.34375 C-12.1946875 18.374375 -12.2565625 17.405 -12.3203125 16.40625 C-12.3203125 11.22455417 -10.99812955 5.73587129 -7.77734375 1.60546875 C-5.22638612 -0.35167926 -3.11508124 -0.13692665 0 0 Z M-3.1328125 6.34375 C-5.25328042 9.87786321 -5.66480539 13.28768835 -6.1328125 17.34375 C-3.1628125 17.83875 -3.1628125 17.83875 -0.1328125 18.34375 C0.04554265 13.79569365 -0.13495815 10.4643246 -2.1328125 6.34375 C-2.4628125 6.34375 -2.7928125 6.34375 -3.1328125 6.34375 Z M-6.1328125 20.34375 C-5.99077913 22.71903151 -5.84429638 25.09390251 -5.6953125 27.46875 C-5.65599609 28.13390625 -5.61667969 28.7990625 -5.57617188 29.484375 C-5.3206605 33.49393817 -4.86498837 37.39369196 -4.1328125 41.34375 C-0.11296338 35.31397631 0.12448014 28.41929765 -0.1328125 21.34375 C-3.1028125 20.84875 -3.1028125 20.84875 -6.1328125 20.34375 Z M-68.1328125 48.34375 C-70.63312904 52.09422482 -70.66884804 53.90231266 -70.1328125 58.34375 C-67.90305087 61.32494541 -67.90305087 61.32494541 -65.1328125 63.34375 C-64.4728125 63.34375 -63.8128125 63.34375 -63.1328125 63.34375 C-62.01251436 57.85428913 -62.34063281 54.50944441 -64.1328125 49.34375 C-65.4528125 49.01375 -66.7728125 48.68375 -68.1328125 48.34375 Z M-61.1328125 67.34375 C-61.86242112 68.8964295 -62.56573891 70.46148043 -63.2578125 72.03125 C-63.65226562 72.90136719 -64.04671875 73.77148438 -64.453125 74.66796875 C-65.3107848 78.04438809 -64.76202634 79.30903527 -63.1328125 82.34375 C-61.69240025 84.59149037 -61.69240025 84.59149037 -60.0703125 86.65625 C-59.54308594 87.35363281 -59.01585937 88.05101563 -58.47265625 88.76953125 C-58.03050781 89.28902344 -57.58835937 89.80851562 -57.1328125 90.34375 C-56.8028125 90.34375 -56.4728125 90.34375 -56.1328125 90.34375 C-56.1328125 82.75375 -56.1328125 75.16375 -56.1328125 67.34375 C-57.7828125 67.34375 -59.4328125 67.34375 -61.1328125 67.34375 Z " fill="#000000" transform="translate(233.1328125,-0.34375)"/>
<path d="M0 0 C23.43 0 46.86 0 71 0 C71 5.28 71 10.56 71 16 C53.18 16 35.36 16 17 16 C17 21.94 17 27.88 17 34 C32.51 34 48.02 34 64 34 C64 39.28 64 44.56 64 50 C48.49 50 32.98 50 17 50 C17 56.6 17 63.2 17 70 C35.15 70 53.3 70 72 70 C72 75.28 72 80.56 72 86 C48.24 86 24.48 86 0 86 C0 57.62 0 29.24 0 0 Z " fill="#000000" transform="translate(372,34)"/>
<path d="M0 0 C5.61 0 11.22 0 17 0 C17.01458252 1.52286621 17.02916504 3.04573242 17.04418945 4.61474609 C17.10244099 10.29922211 17.17967204 15.9833131 17.26245117 21.66748047 C17.29557451 24.12119264 17.32364506 26.5749787 17.34643555 29.02880859 C17.38021329 32.56900328 17.43254167 36.10852849 17.48828125 39.6484375 C17.49467117 40.73426117 17.5010611 41.82008484 17.50764465 42.93881226 C17.65785561 50.83346592 18.35678778 58.45054359 23.1875 64.9375 C30.87524496 70.57517964 38.69412083 70.95717614 48 70 C53.72425445 68.49404338 57.90549131 66.19877459 61 61 C63.69936554 55.01712376 63.35061532 48.82073799 63.4140625 42.3828125 C63.43342865 41.17051971 63.4527948 39.95822693 63.4727478 38.709198 C63.53239315 34.84786961 63.57886945 30.98651117 63.625 27.125 C63.66319356 24.50259137 63.70224609 21.88019509 63.7421875 19.2578125 C63.83808261 12.83864238 63.92216975 6.41941354 64 0 C69.61 0 75.22 0 81 0 C81.09087291 7.37223929 81.16404219 14.74416538 81.20724869 22.11684895 C81.22800031 25.54141087 81.25608503 28.96556517 81.30175781 32.38989258 C81.35409597 36.33930343 81.37304794 40.28855729 81.390625 44.23828125 C81.41127014 45.45018631 81.43191528 46.66209137 81.45318604 47.91072083 C81.45613799 59.24834099 78.71646253 68.52929677 71 77 C61.49909618 86.28977263 51.05333053 87.28436526 38.43359375 87.32128906 C26.64356265 87.17779197 18.05738299 83.82791329 9.375 75.75 C0.42790323 66.48689098 -0.3025238 55.26217271 -0.1953125 42.96875 C-0.19106766 41.1212616 -0.19106766 41.1212616 -0.18673706 39.2364502 C-0.17559202 35.32419898 -0.15049749 31.41218138 -0.125 27.5 C-0.11382966 24.83854502 -0.10583833 22.17709223 -0.09765625 19.515625 C-0.0756712 13.01032742 -0.04118019 6.50520325 0 0 Z " fill="#000000" transform="translate(0,34)"/>
<path d="M0 0 C4.60451738 3.54628619 8.021943 7.9079145 11.2265625 12.71484375 C11.2265625 13.70484375 11.2265625 14.69484375 11.2265625 15.71484375 C9.47974957 16.69968483 7.7289774 17.67750562 5.9765625 18.65234375 C5.00203125 19.19761719 4.0275 19.74289063 3.0234375 20.3046875 C0.69045841 21.4809521 -1.22694512 22.23586066 -3.7734375 22.71484375 C-4.7634375 21.13703125 -4.7634375 21.13703125 -5.7734375 19.52734375 C-10.15263258 13.41626361 -16.42465589 10.04003388 -23.7734375 8.71484375 C-33.26928404 7.89514916 -41.84189482 8.65002493 -49.87109375 14.15234375 C-55.58115617 19.19562606 -58.04669357 25.83741801 -59.15234375 33.2578125 C-59.55438021 41.4152619 -57.17298208 49.54008166 -51.6484375 55.65234375 C-43.92559332 62.41592939 -35.43302867 63.45366387 -25.484375 63.02734375 C-16.8847276 62.30316292 -11.70319478 58.9444968 -5.7734375 52.71484375 C-3.81683699 49.99451102 -3.81683699 49.99451102 -2.7734375 47.71484375 C1.07682129 48.31839783 4.08757409 49.48256978 7.5390625 51.27734375 C8.86357422 51.95990234 8.86357422 51.95990234 10.21484375 52.65625 C10.87871094 53.00558594 11.54257812 53.35492188 12.2265625 53.71484375 C10.80111254 61.19016852 4.00133835 68.05409947 -1.7734375 72.71484375 C-14.80908926 80.66238627 -29.67273083 81.64389475 -44.52734375 79.0625 C-55.48820165 75.73280001 -65.10284088 68.48941054 -71.01953125 58.640625 C-77.11970988 46.90951224 -77.997968 34.78005474 -74.85546875 21.98046875 C-73.21156759 17.01909197 -70.82667692 12.93159384 -67.7734375 8.71484375 C-66.62875 7.10609375 -66.62875 7.10609375 -65.4609375 5.46484375 C-48.21606925 -12.18106795 -20.23061924 -12.94891427 0 0 Z " fill="#000000" transform="translate(337.7734375,41.28515625)"/>
<path d="M0 0 C9.57 0 19.14 0 29 0 C29 2.31 29 4.62 29 7 C26.54749907 8.22625047 25.15689565 8.03425355 22.4296875 7.87890625 C21.08583984 7.80639648 21.08583984 7.80639648 19.71484375 7.73242188 C18.77769531 7.67634766 17.84054687 7.62027344 16.875 7.5625 C15.93011719 7.51029297 14.98523438 7.45808594 14.01171875 7.40429688 C11.6741581 7.27443239 9.33700455 7.1394613 7 7 C7 9.31 7 11.62 7 14 C13.6 14 20.2 14 27 14 C27 16.31 27 18.62 27 21 C20.4 21 13.8 21 7 21 C7 23.31 7 25.62 7 28 C14.59 28 22.18 28 30 28 C30 30.64 30 33.28 30 36 C20.1 36 10.2 36 0 36 C0 24.12 0 12.24 0 0 Z " fill="#000000" transform="translate(362,149)"/>
<path d="M0 0 C2.64 0 5.28 0 8 0 C8 4.62 8 9.24 8 14 C13.94 13.67 19.88 13.34 26 13 C26 8.71 26 4.42 26 0 C28.64 0 31.28 0 34 0 C34 11.88 34 23.76 34 36 C31.36 36 28.72 36 26 36 C26 31.38 26 26.76 26 22 C20.06 21.67 14.12 21.34 8 21 C8 25.95 8 30.9 8 36 C5.36 36 2.72 36 0 36 C0 24.12 0 12.24 0 0 Z " fill="#000000" transform="translate(316,149)"/>
<path d="M0 0 C1.29550781 -0.03738281 2.59101563 -0.07476562 3.92578125 -0.11328125 C8.27965842 0.3795252 10.41994227 1.41982486 13.6875 4.3125 C13.6875 5.6325 13.6875 6.9525 13.6875 8.3125 C13.0275 8.9725 12.3675 9.6325 11.6875 10.3125 C9.23651444 9.91717975 7.04845721 9.09948574 4.6875 8.3125 C3.00204276 8.21962229 1.313007 8.18252796 -0.375 8.1875 C-1.25285156 8.18492187 -2.13070313 8.18234375 -3.03515625 8.1796875 C-5.34448266 8.16416576 -5.34448266 8.16416576 -7.3125 9.3125 C-6.9825 10.3025 -6.6525 11.2925 -6.3125 12.3125 C-4.79269531 12.56773437 -4.79269531 12.56773437 -3.2421875 12.828125 C-1.89049199 13.07218113 -0.53893662 13.31701432 0.8125 13.5625 C1.47765625 13.67207031 2.1428125 13.78164062 2.828125 13.89453125 C7.55502516 14.77503226 10.83217139 16.2891724 14.6875 19.3125 C16.29654424 22.53058847 16.14387009 25.8226111 15.6875 29.3125 C13.72693327 33.14839143 11.46027616 34.64908569 7.5625 36.1875 C-0.07071642 38.38095299 -6.81158804 36.99604815 -13.81640625 33.54296875 C-15.73239896 31.96715229 -15.94426324 30.71864982 -16.3125 28.3125 C-14.625 26.6875 -14.625 26.6875 -12.3125 25.3125 C-9.6875 26.0625 -9.6875 26.0625 -7.3125 27.3125 C-4.42834117 28.75457941 -1.89528472 28.40644887 1.3125 28.375 C3.09527344 28.36146484 3.09527344 28.36146484 4.9140625 28.34765625 C6.28691406 28.33025391 6.28691406 28.33025391 7.6875 28.3125 C7.1925 25.8375 7.1925 25.8375 6.6875 23.3125 C5.66269531 23.13074219 4.63789063 22.94898438 3.58203125 22.76171875 C2.2212571 22.50833322 0.86058527 22.2543978 -0.5 22 C-1.17353516 21.88205078 -1.84707031 21.76410156 -2.54101562 21.64257812 C-6.6915869 20.85295725 -9.90610186 19.83460465 -13.3125 17.3125 C-15.82500583 13.54374125 -15.84266086 11.78099866 -15.3125 7.3125 C-11.51508046 0.75464856 -7.17593798 0.13485937 0 0 Z " fill="#000000" transform="translate(416.3125,148.6875)"/>
<path d="M0 0 C3.11813658 1.71268718 4.35054066 2.79771572 5.48828125 6.2109375 C3.86328125 7.8359375 3.86328125 7.8359375 1.48828125 9.2109375 C-0.52130538 8.57375149 -2.51908284 7.89930263 -4.51171875 7.2109375 C-8.18450752 7.02349862 -11.83711164 7.09324546 -15.51171875 7.2109375 C-15.84171875 8.5309375 -16.17171875 9.8509375 -16.51171875 11.2109375 C-15.42632812 11.36949219 -14.3409375 11.52804688 -13.22265625 11.69140625 C-11.77717756 11.92606188 -10.33187375 12.16179653 -8.88671875 12.3984375 C-8.17386719 12.49962891 -7.46101563 12.60082031 -6.7265625 12.70507812 C-1.30134404 13.62587208 1.56868521 15.33355249 5.48828125 19.2109375 C6.89828789 22.03095077 6.73376576 24.08101005 6.48828125 27.2109375 C4.64963676 31.37208029 2.67132945 33.43091699 -1.51171875 35.2109375 C-11.24519944 37.24154295 -18.23301669 35.38512629 -26.51171875 30.2109375 C-25.4777681 27.39107209 -24.74640959 26.35298722 -22.13671875 24.7734375 C-21.27046875 24.5878125 -20.40421875 24.4021875 -19.51171875 24.2109375 C-18.63386719 24.93023437 -18.63386719 24.93023437 -17.73828125 25.6640625 C-14.77963909 27.71954021 -12.8235994 27.51458578 -9.26171875 27.3984375 C-8.1840625 27.37136719 -7.10640625 27.34429687 -5.99609375 27.31640625 C-4.76632813 27.26419922 -4.76632813 27.26419922 -3.51171875 27.2109375 C-2.85171875 25.5609375 -2.19171875 23.9109375 -1.51171875 22.2109375 C-3.24808594 21.97310547 -3.24808594 21.97310547 -5.01953125 21.73046875 C-6.5587526 21.49583135 -8.09780683 21.26009583 -9.63671875 21.0234375 C-10.39726562 20.92224609 -11.1578125 20.82105469 -11.94140625 20.71679688 C-17.51619201 19.82771466 -20.62833101 18.37475826 -24.51171875 14.2109375 C-25.54991121 11.10168418 -25.29803155 8.37914672 -24.51171875 5.2109375 C-18.63204604 -2.2160175 -8.77557061 -2.75686666 0 0 Z " fill="#000000" transform="translate(170.51171875,149.7890625)"/>
<path d="M0 0 C2.83058857 2.05217671 5.20158776 4.17608595 7.5 6.8125 C7.5 7.4725 7.5 8.1325 7.5 8.8125 C5.25 10.5625 5.25 10.5625 2.5 11.8125 C0.00602424 11.05674977 -1.31825738 9.98751142 -3.1875 8.1875 C-7.58435812 5.57315193 -12.69015553 6.36003888 -17.5 7.5625 C-19.58098277 8.62140042 -19.58098277 8.62140042 -20.3125 10.4375 C-21.10086938 17.81173586 -21.10086938 17.81173586 -19.5 24.8125 C-15.33217494 27.41739066 -10.27225934 27.39302529 -5.5 26.8125 C-2.76940431 25.71638166 -1.75956216 25.25375568 -0.25 22.6875 C-0.0025 22.06875 0.245 21.45 0.5 20.8125 C5.25 22.6875 5.25 22.6875 7.5 23.8125 C6.15251988 28.5286804 3.5685851 31.23447949 -0.5 33.8125 C-6.53334231 36.31690624 -12.40786354 36.43649129 -18.48828125 34.0234375 C-23.33855289 31.46847642 -26.18068894 28.25322547 -28.75 23.5 C-30.52025094 17.15660079 -29.91689568 12.31639859 -26.77734375 6.640625 C-20.59136323 -2.21270492 -9.780581 -3.31841141 0 0 Z " fill="#000000" transform="translate(300.5,150.1875)"/>
<path d="M0 0 C11.22 0 22.44 0 34 0 C34 2.64 34 5.28 34 8 C29.71 8 25.42 8 21 8 C21 17.24 21 26.48 21 36 C18.36 36 15.72 36 13 36 C13 26.76 13 17.52 13 8 C8.71 8 4.42 8 0 8 C0 5.36 0 2.72 0 0 Z " fill="#000000" transform="translate(234,149)"/>
<path d="M0 0 C11.22 0 22.44 0 34 0 C34 2.64 34 5.28 34 8 C29.71 8 25.42 8 21 8 C21 17.24 21 26.48 21 36 C18.36 36 15.72 36 13 36 C13 27.09 13 18.18 13 9 C8.71 8.67 4.42 8.34 0 8 C0 5.36 0 2.72 0 0 Z " fill="#000000" transform="translate(181,149)"/>
</svg>
